# xmcd CD database file
#
# Track frame offsets:
#	150
#	26077
#	48355
#	72202
#
# Disc length: 1215 seconds
#
# Revision: 0
# Processed by: cddbd v1.5.1PL0 Copyright (c) Steve Scherf et al.
# Submitted via: CDex 1.51
#
DISCID=2f04bd04
DTITLE=DELiGHTED MINT - Higher Elevation
DYEAR=2000
DGENRE=R&B
TTITLE0=Higher Elevation
TTITLE1=雲の糸
TTITLE2=Along The Bayside (Giant Swing Mix)
TTITLE3=Higher Elevation (Full Original)
EXTD=YEAR: 2000
EXTT0=
EXTT1=
EXTT2=
EXTT3=
PLAYORDER=
